HIERARCHY
ROOT Hips
{
	OFFSET 0.000000 0.000000 0.000000
	CHANNELS 6 Xposition Yposition Zposition Zrotation Yrotation Xrotation 
	JOINT LHipJoint
	{
		OFFSET 0.000000 0.000000 0.000000
		CHANNELS 3 Zrotation Yrotation Xrotation
		JOINT LeftUpLeg
		{
			OFFSET 1.363060 -1.794630 0.839290
			CHANNELS 3 Zrotation Yrotation Xrotation
			JOINT LeftLeg
			{
				OFFSET 2.448110 -6.726130 0.000000
				CHANNELS 3 Zrotation Yrotation Xrotation
				JOINT LeftFoot
				{
					OFFSET 2.562200 -7.039590 0.000000
					CHANNELS 3 Zrotation Yrotation Xrotation
					JOINT LeftToeBase
					{
						OFFSET 0.157640 -0.433110 2.322550
						CHANNELS 3 Zrotation Yrotation Xrotation
						End Site
						{
							OFFSET 0.000000 0.000000 0.000000
						}
					}
				}
			}
		}
	}
	JOINT RHipJoint
	{
		OFFSET 0.000000 0.000000 0.000000
		CHANNELS 3 Zrotation Yrotation Xrotation
		JOINT RightUpLeg
		{
			OFFSET -1.305520 -1.794630 0.839290
			CHANNELS 3 Zrotation Yrotation Xrotation
			JOINT RightLeg
			{
				OFFSET -2.542530 -6.985550 0.000000
				CHANNELS 3 Zrotation Yrotation Xrotation
				JOINT RightFoot
				{
					OFFSET -2.568260 -7.056230 0.000000
					CHANNELS 3 Zrotation Yrotation Xrotation
					JOINT RightToeBase
					{
						OFFSET -0.164730 -0.452590 2.363150
						CHANNELS 3 Zrotation Yrotation Xrotation
						End Site
						{
							OFFSET 0.000000 0.000000 0.000000
						}
					}
				}
			}
		}
	}
	JOINT LowerBack
	{
		OFFSET 0.000000 0.000000 0.000000
		CHANNELS 3 Zrotation Yrotation Xrotation
		JOINT Spine
		{
			OFFSET 0.028270 2.035590 -0.193380
			CHANNELS 3 Zrotation Yrotation Xrotation
			JOINT Spine1
			{
				OFFSET 0.056720 2.048850 -0.042750
				CHANNELS 3 Zrotation Yrotation Xrotation
				JOINT Neck
				{
					OFFSET 0.000000 0.000000 0.000000
					CHANNELS 3 Zrotation Yrotation Xrotation
					JOINT Neck1
					{
						OFFSET -0.054170 1.746240 0.172020
						CHANNELS 3 Zrotation Yrotation Xrotation
						JOINT Head
						{
							OFFSET 0.104070 1.761360 -0.123970
							CHANNELS 3 Zrotation Yrotation Xrotation
							End Site
							{
								OFFSET 0.000000 0.000000 0.000000
							}
						}
					}
				}
				JOINT LeftShoulder
				{
					OFFSET 0.000000 0.000000 0.000000
					CHANNELS 3 Zrotation Yrotation Xrotation
					JOINT LeftArm
					{
						OFFSET 3.362410 1.200890 -0.311210
						CHANNELS 3 Zrotation Yrotation Xrotation
						JOINT LeftForeArm
						{
							OFFSET 4.983000 -0.000000 -0.000000
							CHANNELS 3 Zrotation Yrotation Xrotation
							JOINT LeftHand
							{
								OFFSET 3.483560 -0.000000 -0.000000
								CHANNELS 3 Zrotation Yrotation Xrotation
								JOINT LeftFingerBase
								{
									OFFSET 0.000000 0.000000 0.000000
									CHANNELS 3 Zrotation Yrotation Xrotation
									JOINT LeftHandIndex1
									{
										OFFSET 0.715260 -0.000000 -0.000000
										CHANNELS 3 Zrotation Yrotation Xrotation
										End Site
										{
											OFFSET 0.000000 0.000000 0.000000
										}
									}
								}
								JOINT LThumb
								{
									OFFSET 0.000000 0.000000 0.000000
									CHANNELS 3 Zrotation Yrotation Xrotation
									End Site
									{
										OFFSET 0.000000 0.000000 0.000000
									}
								}
							}
						}
					}
				}
				JOINT RightShoulder
				{
					OFFSET 0.000000 0.000000 0.000000
					CHANNELS 3 Zrotation Yrotation Xrotation
					JOINT RightArm
					{
						OFFSET -3.136600 1.374050 -0.404650
						CHANNELS 3 Zrotation Yrotation Xrotation
						JOINT RightForeArm
						{
							OFFSET -5.241900 -0.000000 -0.000000
							CHANNELS 3 Zrotation Yrotation Xrotation
							JOINT RightHand
							{
								OFFSET -3.444170 -0.000000 -0.000000
								CHANNELS 3 Zrotation Yrotation Xrotation
								JOINT RightFingerBase
								{
									OFFSET 0.000000 0.000000 0.000000
									CHANNELS 3 Zrotation Yrotation Xrotation
									JOINT RightHandIndex1
									{
										OFFSET -0.622530 -0.000000 -0.000000
										CHANNELS 3 Zrotation Yrotation Xrotation
										End Site
										{
											OFFSET 0.000000 0.000000 0.000000
										}
									}
								}
								JOINT RThumb
								{
									OFFSET 0.000000 0.000000 0.000000
									CHANNELS 3 Zrotation Yrotation Xrotation
									End Site
									{
										OFFSET 0.000000 0.000000 0.000000
									}
								}
							}
						}
					}
				}
			}
		}
	}
}
MOTION
Frames: 4
Frame Time: 0.008333
20.653482 18.023616 -0.502747 -0.613346 -11.854325 3.908343 -4.473346 2.000983 3.485920 -8.701355 -0.151983 -28.267551 9.880403 16.410811 58.463124 0.105863 -1.225662 -1.022033 0.136000 -2.377200 -6.549400 0.782097 -3.194269 3.234542 26.239685 13.586048 -11.957977 -3.255527 -8.089454 28.818195 -0.659712 2.834262 -3.874512 -0.069100 1.696000 -4.666200 0.956359 -2.594888 -2.877734 -4.081647 -3.901568 6.002412 -2.388813 -1.915009 -0.276934 -20.083740 -20.506068 8.780339 32.402551 -27.798530 -7.453416 8.977000 -15.315300 3.953100 -1.771142 -3.064295 -0.331495 -83.184932 7.533184 9.548692 20.423139 -24.882467 -4.556464 -0.503847 -1.246261 17.636868 10.511743 28.566938 5.341800 -7.125000 0.000000 0.000000 -23.182600 58.795300 -8.092200 4.815745 3.670010 -0.967498 83.265356 2.181661 21.529293 -26.053112 33.065323 -9.102960 0.530821 -0.412260 10.611881 -22.047544 18.680913 -7.707700 7.125000 0.000000 0.000000 3.605000 -9.625200 2.957500 
20.640806 18.022154 -0.368675 -0.997530 -12.134864 3.863087 -4.466900 1.981536 3.424814 -8.206589 -0.536200 -28.859880 9.612784 16.276668 57.585026 0.140138 -1.220312 -2.256393 0.203100 -2.902000 -8.006000 0.783136 -3.175582 3.244408 26.706957 13.357026 -11.223914 -3.222068 -8.010703 28.608268 -0.680326 2.924420 -3.998676 -0.096900 2.007300 -5.525800 1.466401 -2.450663 -2.764858 -4.132438 -3.696006 6.027039 -2.713339 -1.804971 -0.396161 -19.770138 -20.589766 8.176352 31.730146 -28.128413 -6.008680 8.629000 -15.268000 4.269400 -1.738373 -3.027299 -0.325150 -83.223000 7.865079 8.877171 20.560438 -25.089711 -4.625407 -0.529657 -1.170220 17.843258 12.069483 27.426746 5.939700 -7.125000 0.000000 0.000000 -20.656100 58.037000 -6.778500 4.782786 3.697876 -0.942847 83.365403 2.689766 21.850577 -26.778484 33.819737 -9.594070 0.526121 -0.380110 10.477689 -21.889934 18.640175 -7.617600 7.125000 0.000000 0.000000 3.709100 -9.724500 3.035800 
20.629398 18.027126 -0.236455 -1.160131 -12.409820 3.952451 -4.476048 1.948068 3.351538 -7.994732 -0.996822 -29.453172 9.226309 16.040877 56.287987 0.138950 -1.052114 -2.744481 0.214200 -2.979600 -8.222100 0.790941 -3.157254 3.256842 26.851751 13.174462 -10.991837 -3.269493 -8.073297 28.840359 -0.785500 3.407314 -4.401536 -0.070700 1.715800 -4.720800 1.665845 -2.340303 -2.775820 -3.986006 -3.547486 5.954522 -2.831108 -1.725966 -0.462077 -19.676983 -20.627618 7.435389 30.955230 -28.373881 -4.631410 8.275000 -15.175200 4.595800 -1.746337 -2.999980 -0.319219 -83.402109 8.023585 8.547545 20.428000 -24.926635 -4.558846 -0.538651 -1.157613 17.861160 12.320389 27.127953 6.011300 -7.125000 0.000000 0.000000 -20.172900 57.805600 -6.497600 4.742862 3.723804 -0.911188 83.071625 3.104730 22.390062 -27.567702 34.622493 -10.135858 0.520018 -0.326878 10.118125 -21.588795 18.191486 -7.311600 7.125000 0.000000 0.000000 3.878100 -10.294300 3.130000 
20.627448 18.012793 -0.104430 -1.108700 -12.833991 4.002396 -4.510463 1.905789 3.283723 -8.023584 -1.329217 -29.977339 8.791830 15.755703 54.814449 0.138631 -0.941821 -3.043945 0.181400 -2.743300 -7.564900 0.798170 -3.144301 3.266305 26.681800 12.836206 -10.812073 -3.293698 -8.110392 28.957859 -0.961988 4.316723 -4.766423 -0.034800 1.204500 -3.311700 1.680105 -2.255710 -2.781523 -3.946923 -3.442185 5.805363 -2.862879 -1.667982 -0.536153 -19.559166 -20.514500 6.968941 30.364932 -28.388960 -3.506104 8.044500 -15.024400 4.813600 -1.752971 -2.976744 -0.312226 -83.642659 8.304621 8.180739 20.269557 -24.729090 -4.479455 -0.558186 -1.180947 17.433504 12.506904 27.583631 6.207800 -7.125000 0.000000 0.000000 -20.293000 58.300200 -6.782600 4.718806 3.742466 -0.878906 82.774296 3.546214 23.110528 -28.236423 35.282994 -10.605521 0.518717 -0.306899 9.657880 -21.415806 18.403168 -7.320600 7.125000 0.000000 0.000000 4.010000 -10.112300 3.251800 
